<?xml version="1.0" encoding="utf-8"?>
<!-- Generator: Adobe Illustrator 22.0.1, SVG Export Plug-In . SVG Version: 6.00 Build 0)  -->
<svg version="1.1" id="图层_1" xmlns="http://www.w3.org/2000/svg" xmlns:xlink="http://www.w3.org/1999/xlink" x="0px" y="0px"
	 viewBox="0 0 500 500" style="enable-background:new 0 0 500 500;" xml:space="preserve">
<style type="text/css">
	.st0{opacity:0;}
	.st1{fill:#A0A0A0;}
	.st2{fill:#B3B3B3;}
	.st3{fill:#E6E6E6;}
	.st4{opacity:0.88;}
	.st5{fill:#333333;}
</style>
<g>
	<g class="st0">
		<path class="st1" d="M455,511H45c-24.8,0-45-20.3-45-45V67c0-24.8,20.3-45,45-45h410c24.8,0,45,20.3,45,45v399
			C500,490.8,479.8,511,455,511z"/>
	</g>
	<g>
		<path class="st2" d="M455,500H45c-24.8,0-45-20.3-45-45V56c0-24.8,20.3-45,45-45h410c24.8,0,45,20.3,45,45v399
			C500,479.8,479.8,500,455,500z"/>
	</g>
</g>
<g>
	<g class="st0">
		<path class="st1" d="M455,458H45c-24.8,0-45-20.3-45-45V56c0-24.8,20.3-45,45-45h410c24.8,0,45,20.3,45,45v357
			C500,437.8,479.8,458,455,458z"/>
	</g>
	<g>
		<path class="st3" d="M455,447H45c-24.8,0-45-20.3-45-45V45C0,20.3,20.3,0,45,0h410c24.8,0,45,20.3,45,45v357
			C500,426.8,479.8,447,455,447z"/>
	</g>
</g>
<g>
	<g class="st4">
		<path class="st5" d="M143.6,90.4h106.6c63.5,0,115.8,19.9,115.8,84.3c0,62.2-52.3,88.9-115.8,88.9h-38.6V361h-68V90.4z M244.7,215
			c35.6,0,54.8-13.8,54.8-40.3c0-26.7-19.1-35.7-54.8-35.7h-33.1v76H244.7z M284.7,208.3L380.4,361h-75.9l-66.7-113.5L284.7,208.3z"
			/>
	</g>
</g>
</svg>
