<?xml version="1.0" encoding="utf-8"?>
<!-- Generator: Adobe Illustrator 22.0.1, SVG Export Plug-In . SVG Version: 6.00 Build 0)  -->
<svg version="1.1" id="图层_1" xmlns="http://www.w3.org/2000/svg" xmlns:xlink="http://www.w3.org/1999/xlink" x="0px" y="0px"
	 viewBox="0 0 500 500" style="enable-background:new 0 0 500 500;" xml:space="preserve">
<style type="text/css">
	.st0{fill:#E6E6E6;}
	.st1{fill:#CCCCCC;}
	.st2{fill:#F1F1F1;}
	.st3{fill:#067655;}
	.st4{fill:#FFFFFF;}
	.st5{fill:#010101;}
	.st6{fill:#FF3F3F;}
	.st7{fill:#FFCE4A;}
	.st8{fill:#808080;}
	.st9{fill:#FFB57F;}
</style>
<path class="st0" d="M339,500H60c-19.3,0-35-15.8-35-35V43C25,23.8,40.8,8,60,8h279c19.3,0,35,15.8,35,35v422
	C374,484.3,358.3,500,339,500z"/>
<rect x="50.5" y="74" class="st1" width="298.1" height="40"/>
<rect x="50.5" y="136" class="st1" width="298.1" height="40"/>
<rect x="50.5" y="198" class="st1" width="298.1" height="40"/>
<rect x="50.5" y="260" class="st1" width="298.1" height="40"/>
<rect x="50.5" y="322" class="st1" width="298.1" height="40"/>
<rect x="50.5" y="384" class="st1" width="298.1" height="40"/>
<polygon class="st2" points="463,500 316,500 301,240 478,240 "/>
<rect x="292" y="231" class="st2" width="196" height="13"/>
<polygon class="st2" points="478,237 301,237 306,211 473,211 "/>
<path id="green_b" class="st3" d="M329.5,346.5c0-34,27.2-61.5,60.8-61.5c33.6,0,60.8,27.5,60.8,61.5c0,34-27.2,61.5-60.8,61.5
	C356.7,408,329.5,380.5,329.5,346.5"/>
<path id="white_b" class="st4" d="M331.3,346.5c0-33,26.4-59.7,59-59.7c32.6,0,59,26.7,59,59.7c0,33-26.4,59.7-59,59.7
	C357.7,406.2,331.3,379.5,331.3,346.5"/>
<path id="mid" class="st3" d="M333.2,346.5c0-31.9,25.5-57.7,57.1-57.7c31.5,0,57,25.9,57,57.7c0,31.9-25.5,57.7-57,57.7
	C358.7,404.2,333.2,378.4,333.2,346.5"/>
<path id="STARBUCKS" class="st4" d="M406.4,295.7c-1,3-2.3,5.9-3.1,9c-0.1,0.8,0.4,1.6,1.3,1.8c0.6,0.3,1.5,0.4,1.9,0
	c2-2.8,2.9-6.2,4.1-9.3c1.6,0.6,2.8,1.3,4.3,1.9c-1.6,3.4-2.6,7.5-4.8,10.3c-1.6,1.4-4.1,1.1-6.1,0.6c-2.2-0.8-4.6-2.2-5.3-4.7
	c-0.5-1.7,1.8-7.6,3.1-11.1L406.4,295.7 M379.4,302.6c0.5-0.7,0.7-1.5,1-2.3c0-1.3-0.1-2.7-1-3.7c-3.5-3.7-9.2,0.3-13.1,1.9
	c1.6,4,3.6,8.9,5.4,13.1l4.2-2.3l-1.5-3.5c0.6-0.2,1-0.6,1.6-0.7c1.4,1,2.3,1.9,3.9,3.1l4.4-1l0.2-0.1
	C382.8,305.8,380.6,304.1,379.4,302.6z M375.2,301.6l-2.4,1c-0.6-1.1-0.9-1.9-1.3-2.8c1.1-0.4,3.1-2.1,4-0.2
	C375.8,300.2,375.8,301.3,375.2,301.6z M397.4,302.3c-0.1-1.3-1.1-2-2.1-2.8c0.8-0.6,1.3-1.5,1.6-2.4c0-1.3-0.2-2.4-1.2-3.3
	c-3.4-1.7-7.8-0.7-11.6-0.7l0,0.3l0.6,13.2l0,0.5l5.7-0.2c2.2-0.1,4.6,0.4,6.1-1.3C397.3,304.7,397.6,303.6,397.4,302.3z
	 M388.9,295.8c0.8,0.1,2.3-0.3,2.9,0.4c0.3,0.4,0.3,1.1,0.1,1.6c-0.6,0.8-1.8,0.7-2.8,0.6C389.1,297.5,388.8,296.7,388.9,295.8z
	 M391.6,303.8c-0.8,0.1-1.4,0-2.2,0.1c-0.1-0.9-0.2-2.1-0.1-2.9c1.1,0.2,2.8-0.5,3.4,0.8C392.8,302.7,392.4,303.6,391.6,303.8z
	 M426,306.7c0.8,1,1.4,2.3,1.8,3.7c-1,0.6-1.8,1.2-2.8,1.7c-0.2-1.5-1.1-3.1-2.6-3.9c-0.7-0.4-1.8-0.5-2.6-0.2
	c-1.3,0.5-2.3,1.6-2.8,2.8c-0.4,1.2,0,2.4,0.7,3.4c1,1.1,2.2,1.7,3.7,1.7c-0.7,1.1-1,1.8-1.6,2.6c-2.4-0.4-4.7-1.7-6.1-4
	c-1.2-1.9-1.3-4.9-0.2-6.9c1.1-2.2,3.2-3.7,5.6-4C421.8,303.6,424.3,304.7,426,306.7 M358.8,304l-0.4-0.3l-5.2,4.5l5.7,13.7l0.3,0.6
	l3.2-3.6c-0.4-1-0.9-2.1-1.2-3l3.6-3.1c0.9,0.4,1.6,0.8,2.8,1.5l3.3-2.2l0.4-0.3C367.1,309.5,362.9,306.5,358.8,304z M359.6,312.7
	c-0.6-1.4-1.2-2.7-1.8-4.3c1.4,0.8,2.7,1.7,4,2.5C361.1,311.6,360.4,312.2,359.6,312.7z M433.4,315.6c-1.1,1.1-2.6,2.1-3.9,3.2
	c1.9,0.4,4.1,0.3,6.1,0.7c0.9,1.3,1.4,2.6,2.2,4.1l-7.3-0.5c-1.6,2.5-3.1,5.1-4.4,7.8c-0.9-1.3-1.5-2.9-2.4-4.3
	c0.9-1.9,2.2-4,3.1-5.9c-1.6,1-3,2.3-4.7,3.4l-2.6-3.5c3.5-3,7.2-5.7,10.8-8.4l0.3-0.1L433.4,315.6 M351.9,314.7
	c-0.7,1.4-1.5,2.3-2.1,3.6l8.4,5.6c-0.4,1.3-1.4,2.5-2.2,3.7l-8.7-5.5c-0.8,1-1.3,2.1-2.1,3.4c-1.1-0.8-1.9-1.3-2.9-1.9
	c2.1-3.6,4.2-7,6.6-10.8L351.9,314.7 M343.9,328.3c-1.5,1.2-2.6,3-2.3,5c0.2,0.3,0.3,0.7,0.7,0.8c1.2,0,1.7-1.3,2.2-2.2
	c0.7-1.5,2-3.1,3.7-3.3c1.5-0.1,2.8,0.3,3.8,1.5c1.5,1.8,1.2,4.8,0.5,6.9c-0.7,1.6-1.7,3.2-3.2,4.2l-2.7-1.7c1.5-1,3-2.7,3.2-4.6
	c0-0.7-0.1-1.6-1-1.7c-1.7,0.5-1.9,2.6-3,3.7c-0.9,0.9-2,1.6-3.4,1.4c-1.3-0.1-2.4-0.9-3.2-1.9c-1.5-2.2-0.7-5.5,0.1-7.3
	c0.5-1,1.2-1.9,2.1-2.7C342.2,327,343.1,327.7,343.9,328.3 M440.6,330.3c1.3,2.1,1.8,4.9,1.1,7.4l-2.7-0.1c0.4-1.7,0.6-3.8-0.5-5.2
	c-0.3-0.4-1-0.7-1.4-0.5c-1.5,1.7,0.1,4.2-0.8,6.1c-0.4,0.9-1.1,1.9-2.1,2.3c-1.6,0.6-3.5,0.3-4.7-0.9c-2.3-2.4-3.4-6.2-1.9-9.4h2.9
	c-0.5,1.3-0.8,3-0.4,4.5c0.2,0.6,0.5,1.4,1.3,1.6c2.4,0.1,0.8-3.3,1.3-4.9c0.2-1.2,0.9-2.4,2.1-3C437,327.1,439.6,328.3,440.6,330.3
	"/>
<path id="COFFEE" class="st4" d="M364.2,375.7c0.3,0.7,0.7,1.3,0.9,2.4c-0.8,0.5-1.8,0.9-2.7,1.4c-0.2-1.7-1.7-3.3-3.3-3.7
	c-1.3-0.3-2.8,0.3-3.8,1.5c-0.8,1-1.1,2.4-0.8,3.6c0.6,1.7,2.4,3,4.2,3l0.5,0c-0.5,1.2-0.8,1.8-1.3,2.7c-3-0.1-6-1.9-7.1-4.8
	c-1-2.4-0.5-5.4,1-7.4c1.8-2.3,4.7-3,7.6-2.4C361.3,372.5,363,373.9,364.2,375.7 M421.7,374.1l0.2,0.2l-4.4,4.2l1.5,1.8
	c1.3-1,2.6-2.1,4-3.3c0.7,0.6,1.2,1.3,1.9,2.1c-1.3,1.3-2.7,2.2-3.9,3.4c0.5,0.6,0.9,1.3,1.6,2.1l4.8-4l2,2.1
	c-2.7,2.6-5.7,5.3-8.5,7.4l-8.4-10.9c2.7-2.3,4.9-4.3,7.3-6.7C420.5,372.9,421,373.5,421.7,374.1 M374.6,383.4
	c-1.5-2.3-4.2-3.7-7.2-3.5c-2.8,0.4-5.6,2.4-6.4,5.3c-0.9,2.6,0.1,5.4,1.8,7.3c1.9,1.9,4.4,2.7,7.1,2.3c2.2-0.5,4.2-1.9,5.3-4.2
	C376.2,388.3,376.1,385.3,374.6,383.4z M370,390.5c-0.9,0.7-2,1.1-3.1,0.7c-0.7-0.4-1.6-1-1.8-1.8c-0.5-2,0.4-3.9,1.7-5.2
	c0.8-0.7,2-1.1,3.1-0.6c0.6,0.2,1.4,0.9,1.6,1.6C372.3,387.1,371.4,389.1,370,390.5z M401,388.3c-2.1,0.3-4.1,0.6-6,0.9
	c0.2,1,0.1,1.6,0.3,2.4c1.9,0,3.5-0.4,5.2-0.6l0.5,3.2c-1.7,0.3-3.5,0.6-5.3,0.8c0,1.4,0.2,3.2,0.2,4.8c-1.5,0.2-3,0.4-4.5,0.3
	l-0.9-13.7l0-0.3c3.3-0.3,6.7-0.8,9.9-1.3C400.5,385.9,400.8,387.1,401,388.3 M412.3,382.2l0.1,0.2l-5.4,2.8l0.9,2.2
	c1.7-0.6,3.1-1.2,4.7-2.1c0.5,0.8,0.8,1.6,1.3,2.5c-1.5,0.8-3,1.4-4.7,2.2c0.3,0.7,0.5,1.3,1,2.5l5.7-2.5l1.4,2.6
	c-3.3,1.7-6.9,3.5-10.2,4.7l-5-12.9c3.2-1.4,5.9-2.7,8.8-4.3C411.5,380.7,411.8,381.4,412.3,382.2 M388.4,389.9c-2.1-0.4-4-0.7-6-1
	c-0.1,1-0.4,1.6-0.5,2.4c1.8,0.5,3.4,0.7,5.1,1l-0.5,3.2c-1.7-0.2-3.5-0.5-5.3-0.9c-0.4,1.4-0.7,3.1-1.2,4.7c-1.5-0.2-3-0.6-4.4-1.1
	l3.3-13.3l0.1-0.3c3.3,0.7,6.6,1.3,9.9,1.8C388.6,387.4,388.5,388.6,388.4,389.9"/>
<path id="star" class="st4" d="M346.6,356c1.5,0,2.9,0,4.5,0l-3.4,2.9c0.3,1.2,0.6,2.6,1,4.3l-3.4-2.4c-1.4,0.7-2.3,1.5-3.8,2.2
	l1.2-4.1c-1.1-0.9-2.4-1.8-3.4-2.8c1.6,0,2.9,0,4.4,0c0.7-1.3,1-2.8,1.6-4.1L346.6,356"/>
<path id="star_1_" class="st4" d="M436.4,356c1.5,0,2.8,0,4.5,0l-3.4,2.9c0.3,1.2,0.6,2.6,1,4.3l-3.4-2.4c-1.4,0.7-2.3,1.5-3.8,2.2
	l1.2-4.1c-1.1-0.9-2.4-1.8-3.4-2.8c1.5,0,2.9,0,4.4,0c0.6-1.4,1-2.7,1.6-4.1L436.4,356"/>
<path id="inner" class="st4" d="M355,346.3c0-19.6,15.7-35.6,35.1-35.6c19.4,0,35.1,15.9,35.1,35.6c0,19.6-15.7,35.6-35.1,35.6
	S355,365.9,355,346.3"/>
<path id="inner_artwork" class="st5" d="M390,324.8c1.2,0.7,2.4,1.6,3.3,2.5l-0.4,0.4c-1.9-0.2-3.8,0-5.6,0.1
	c-0.2-0.2-0.6-0.5-0.2-0.8L390,324.8z M422.7,348.1c0,0.8,0.1,1.6-0.2,2.4c-3.4,1-5.6-2.7-8.9-2.1l0.4,1.9c3,0.1,4.9,3,8.1,2.9
	c-0.4,0.9,0.2,3.3-1.8,2.3c-2-0.5-3.5-2.3-5.8-2.3c-0.3,0.5-0.1,1.2-0.1,1.8c2.4,0.4,4.1,2.4,6.4,2.8c-0.2,0.8-0.4,1.7-1.1,2.2
	c-1.9-0.5-3.4-2.2-5.5-2.2l-0.4,1.7c1.9,0.1,3.2,1.8,5,2.3c0,0.7-0.6,1.4-1,2c-1.6-0.5-2.7-1.8-4.5-1.7c0-0.7,0.4-1.4,0.2-2.2
	c-2,0.6-3.3-1.3-4.8-2.4c0-3.7-3.9-6.1-4.1-9.6c0-0.7,0.1-1.4,0.4-2.2c1.3-2.9,0.9-6.8-0.5-9.5c-0.4-0.7-1.2-1.3-1.9-1.7
	c1,2.2,2.3,4.7,1.6,7.4c-0.1,2.1-1.3,4-1.3,6c0,0.7,0.1,1.4,0.5,2.1c1.6,2.9,4.5,5.7,3.4,9.4c-0.3,1.1-1.2,2-1.4,3.1
	c1.9,1.6,3.7,3.4,6.1,3.4c0.9-0.6,0.4-3.1,2.2-1.9l2.7,1.4c-0.2,0.7-0.8,1.4-1.3,1.9c-1-0.5-2-1.1-3.3-1c-0.4,0.4-0.7,0.8-0.7,1.4
	c0.9,0.1,1.7,0.5,2.4,1.1c-0.3,0.8-1,1.2-1.6,1.8l-2.1-0.7c-0.3,0.5-1.1,1-0.8,1.6c0.5,0.2,1,0.5,1.3,0.8c-0.9,1-2.1,1.6-3.2,2.3
	c-1-3.2-4.1-5.4-3.9-9.1l-0.1-0.1c-0.7,0.8-0.5,2.2-0.4,3.3c0.9,2.3,3,4.1,3.3,6.6c-0.4,0.6-1.2,0.8-1.9,1.1c0.1-4.5-6.7-8-2.4-12.6
	c1.5-2.3,3.9-4.4,3-7.5c-0.9-3-4-4.8-4-8.2l0-0.3c0.7-3.5,2.9-7.2,1.1-10.9c-0.5-1.5-1.6-3.2-3.1-3.8c2.2,2.6,3.1,6.8,1.9,10.3
	c-0.6,1.4-1.5,3.1-1.6,4.7h0c0,0.9,0.1,1.7,0.7,2.5c1.7,2.8,4.7,5.9,3,9.5c-1.9,2.9-5.3,5.9-3.4,9.7c1.4,2.3,3.5,4.6,2.9,7.4
	l-2.2,0.7c1.5-5.3-5.8-8.4-2.7-13.6c1.9-2.8,5.2-5.5,3.3-9.2c-1.1-2.3-3.5-3.7-3.4-6.6l0.1-0.5c0.8-4.1,3.9-8,1.7-12.4
	c-0.6-1.3-1.7-2.6-3-3.4l-0.1,0.1c2.5,2.5,3.3,6.5,1.9,9.8c-0.6,1.9-2,3.8-2.3,5.9c-0.1,1,0,2,0.5,3c1.6,2.6,4.4,5.3,2.7,8.6
	c-1.8,2.7-4.9,5.4-3.7,9c1.4,3.1,4.2,6.1,2.7,10l-2.3,0.5c1.8-3.8-0.9-7.5-2.5-10.8c-2-4.7,4.2-6.9,4.3-11.2c0-2.8-2.9-4.3-3.6-6.9
	c-1.3-1.1-2.6,0.4-4.1,0.1c-1.1,0.2-2.8-1.6-3.5,0.4c-0.8,2.8-4.4,4.9-2.8,8.2c1.5,3,5.1,5.2,3.9,9c-1.1,3.6-4.7,7-2.4,11.2
	c-0.9-0.3-2.6,0.3-2.6-1.2c-1.4-5,4.6-7.9,2.7-13c-0.9-3.1-4.8-4.8-3.9-8.5c0.6-3,4-5.2,3.5-8.5c0-0.3-0.1-0.6-0.2-0.9
	c-1.3-3.6-3.8-7.2-2.3-11.4c0.4-1.2,1.3-2.2,2-3.3c-2.4,1.3-3.7,4.1-3.6,7c-0.1,3.1,2.2,5.8,2.5,8.6c0.1,1.1-0.1,2.3-0.8,3.6
	c-1.6,2.2-3.7,4.5-2.7,7.4c0.9,2.9,4.5,4.7,4.3,8.1c0,4-4.6,6.5-3.3,11l-2.3-0.8c-0.9-4,3.3-6,3.3-9.7c0.6-4.3-4.8-5.8-4.4-10
	c0-3.2,2.7-5.1,3.9-7.8c0.2-0.6,0.3-1.3,0.2-1.8c-0.1-2.9-2.8-5.2-2.3-8.5c0.1-2.4,1-4.5,2.5-6.4c-2.1,0.9-3,3.4-3.6,5.5
	c-1,3.4,1.4,6.4,1.7,9.4c0.1,1.3-0.2,2.7-1.5,4c-1.8,2.1-3.6,4.8-2.3,7.7c1.4,3.1,5.6,5.6,3.8,9.5c-1,2.5-3.4,4.3-3.3,7.3
	c-0.6-0.3-1.3-0.5-1.9-1c0-3.7,5.2-6,2.7-10c-0.2,0.8-0.3,1.8-0.4,2.7c-0.9,2.3-2.7,4.1-3.4,6.4c-1.2-0.5-2.4-1.4-3.3-2.4l1.3-0.8
	c-0.1-0.5-0.5-0.9-0.9-1.4c-0.9-0.1-1.4,0.5-2.2,0.7c-0.6-0.6-1.2-1.1-1.7-1.7c0.4-1.3,3.9-0.2,2.2-2.3c-1.2-0.7-2.4,0.3-3.4,0.8
	l-1.4-1.8c1.2-0.7,2.4-1.8,3.9-1.5c0.4,0.7,0.4,1.7,1.1,2c2.5,0,4.3-2,6.3-3.5c-1.4-2-2.5-4.9-1.3-7.3c1-2.5,3.5-4.6,3.6-7.3
	c0-0.6-0.1-1.3-0.3-2c-1.3-3.5-1.8-8.2,0.7-11.2c-1.4,0.4-2.2,2.1-2.7,3.4c-1.5,3.4,0.4,6.5,0.5,9.8c0,0.6,0,1.2-0.2,1.8
	c-1.3,2.7-3.4,5-3.8,8.1c-1.5,1-2.7,2.7-4.9,2.1c-0.1,0.6,0.1,1.4,0.3,2.1c-1.7-0.1-2.9,1.2-4.3,1.8c-0.8-0.2-1-1.2-1.3-1.9
	c1.7-0.6,2.9-2.3,4.8-2.2c0.2-0.6-0.1-1.2-0.2-1.8c-2.4-1.1-6.2,5.3-6.5-0.2c2.4-0.1,3.9-2.4,6.3-2.6l0.1-1.8
	c-2.7-0.3-4.4,2.5-7.1,2.2l-0.6-2.4c3.1,0.2,5-2.6,7.9-2.8c0.4-0.5,0.4-1.3,0.5-2c-3.2-0.4-5.5,3.2-8.9,2.1c0,0-0.1-1.5-0.2-2.4h0
	c0-0.3,0-0.6,0-0.6c3.1,1.2,5.8-1,8.4-2.2c0.7-0.2,1.7,0.1,2-0.6c0-0.6,1-1.2,0.1-1.6c-3.8-0.5-6.4,4.1-10.3,2l-0.3-0.6
	c0.8-11.3,7.1-22.2,17.6-27.6c4.2-2.4,9.5-3.7,14.8-3.7c6.4-0.1,12.9,1.6,17.7,5.1c4.7,2.9,9.1,7.7,11.6,12.5
	c2.3,4.2,3.4,9,3.7,14.1c-4.1,3.1-6.8-2.9-10.9-1.6c0.2,0.7,0.3,1.3,0.8,1.9c3.7,0,6.2,3.8,10,2.3L422.7,348.1z M376.2,334.2
	c-2.6-1.7-5.8-0.1-8.2,0.8c-0.2-2.3-1.1-4.3-3-5.8c-0.2-0.1-0.4-0.3-0.7-0.3c-0.1,0-0.3,0-0.4,0.2c0.9,5.4-2.6,9.1-5,13.2
	c0.8,0.7,2.1,0.6,3.1,0.4c2.6-1,5.1-2.9,8.1-2.2c0.9-1.6,2.4-3.1,3.7-4.3C374.6,335.4,375.6,335,376.2,334.2z M384,337.6
	c0,0.3,0,0.9,0.5,0.7c0.8-1.1,2.1-0.2,3-0.1v-0.3c-0.5-0.7-1.4-1.1-2.4-1.1c-0.2,0-0.4,0-0.7,0.1C384.2,336.9,383.9,337.2,384,337.6
	z M396.1,334.3c-0.7-1.6-2.3-2.2-3.7-2.6c-0.7-0.1-1.4-0.1-2.2-0.2c-0.1,0-0.3,0-0.4,0c-2,0-4,0.6-5.1,2.3c-0.2,0.5-0.9,1.1-0.2,1.6
	c1.6-0.1,3.3-0.3,4.4,1.1c0,1.2,0.8,2.8-0.5,3.4c-1.1-1-2.3,0.4-3.5-0.4c-0.5-0.3-0.9,0.1-1.1,0.5c-0.3,3.1,1.3,6.5,4.1,8.2
	c1.2,0.4,2.7,0.8,3.9,0.2c2.9-1.4,4.1-4.5,4.7-7.4c-0.1-0.6,0-1.6-0.8-1.7c-0.9,0.6-2.1,0.2-3,0c-0.5,0.2-0.6,1-1.2,1.1l-0.4-0.3
	c-0.3-1.4-0.5-3.3,0.7-4.3c1.4-0.6,3.1-0.8,4.5-0.4C396.6,335.1,396.2,334.8,396.1,334.3z M394.6,336.8c-0.1,0-0.2,0-0.3,0
	c-0.5,0.3-2,0.1-1.5,1.3c0.9-0.8,2.2-0.2,3.2,0.1c0.3-0.2,0.3-0.5,0.3-0.8C396,336.8,395.3,336.8,394.6,336.8z M405.4,326.2
	c-1.8-0.1-3.4,1-5,1.4c-0.1-1.4,0.9-3,1.2-4.4c-2.7,0.2-4.9,1.8-7.1,3.2c-0.5-1.3-1-2.5-1.6-3.8l3-2.8l0.1-0.4l-4-0.2
	c-0.7-1.2-1-2.7-1.8-3.8c-0.7,1.3-1.1,2.6-1.8,3.9l-4,0.2v0.3l3,2.8c-0.4,1.4-0.7,3-1.6,4.1c-1.8-1.1-3.5-2.3-5.5-3
	c-0.5-0.2-1.1-0.4-1.6-0.1c0.6,1.4,1.5,2.9,1.3,4.4c-0.8-0.2-1.5-0.7-2.2-0.9c-0.9-0.3-2-0.7-2.9-0.4c1.5,2.1,2.7,4.3,3.1,6.8
	c4.9-2.4,10.6-3.7,16.6-2.7c2.8,0.4,5.4,1.6,7.8,2.5C402.6,330.5,404.2,328.4,405.4,326.2z M413.8,340.6c2.5,0.7,5,3.4,7.7,1.6
	c-2.3-3.9-5.8-7.5-4.8-12.6c0.1-0.3-0.1-0.7-0.4-0.7c-1.5,0.6-2.7,2.1-3.3,3.6c-0.2,0.9-0.4,1.8-0.7,2.6c-1.8-1-3.7-1.9-5.9-1.6
	c-0.8,0.1-1.9,0.2-2.1,1c2.5,1.3,4.5,3.6,6.1,6C411.4,340.3,412.7,340.5,413.8,340.6z M387.4,344.2l0.1,0.5c1,0.7,1.3,1.8,2.6,1.7
	c1.2,0.1,2.1-1.1,2.7-2C391.2,344.1,389.2,344.4,387.4,344.2z M388.8,342.1c0,0.2-0.1,0.5,0.1,0.6c0.8-0.2,2.2,0.4,2.7-0.5
	c-0.3-0.3-0.8-0.5-1.3-0.5C389.7,341.7,389.2,341.9,388.8,342.1z"/>
<path class="st6" d="M49.5,128.6l-26.4,2c-1.1,0.1-2.1-0.7-2.1-1.8L20,116.6c-0.1-1.1,0.7-2.1,1.8-2.1l26.4-2
	c1.1-0.1,2.1,0.7,2.1,1.8l0.9,12.2C51.4,127.6,50.6,128.5,49.5,128.6z"/>
<rect x="30.9" y="131.2" transform="matrix(0.9971 -7.551540e-02 7.551540e-02 0.9971 -20.7816 4.3721)" class="st7" width="33" height="291.5"/>
<rect x="19.8" y="127.6" transform="matrix(0.9971 -7.551540e-02 7.551540e-02 0.9971 -9.6849 3.1085)" class="st8" width="33" height="4"/>
<polygon class="st9" points="60,442.5 60,442.5 42,423.6 74.9,421.1 "/>
</svg>
