<?xml version="1.0" encoding="utf-8"?>
<!-- Generator: Adobe Illustrator 22.0.1, SVG Export Plug-In . SVG Version: 6.00 Build 0)  -->
<svg version="1.1" id="图层_1" xmlns="http://www.w3.org/2000/svg" xmlns:xlink="http://www.w3.org/1999/xlink" x="0px" y="0px"
	 viewBox="0 0 60 60" style="enable-background:new 0 0 60 60;" xml:space="preserve">
<style type="text/css">
	.st0{display:none;opacity:5.000000e-02;}
	.st1{display:inline;fill:#000E2D;}
	.st2{fill:#00BDFF;}
</style>
<g>
	<g class="st0">
		<path class="st1" d="M26.6,43.7l-2,2c-1.8,1.7-4.6,1.7-6.4,0c-0.8-0.8-1.3-1.9-1.3-3.1s0.5-2.3,1.3-3.1l7.5-7.4
			c1.5-1.5,4.4-3.8,6.6-1.7c1,1,2.5,1,3.5,0s1-2.5,0-3.5c-3.6-3.6-8.9-2.9-13.5,1.7L14.8,36C13,37.7,12,40.1,12,42.6s1,4.9,2.8,6.6
			c1.8,1.8,4.3,2.7,6.7,2.7s4.8-0.9,6.7-2.7l2-2c1-1,1-2.5,0-3.5C29.2,42.8,27.6,42.8,26.6,43.7z M49.2,15c-3.9-3.8-9.3-4-12.8-0.5
			L33.9,17c-1,1-1,2.5,0,3.5s2.5,1,3.5,0l2.5-2.5c1.9-1.8,4.3-1.1,5.9,0.5c0.8,0.8,1.3,1.9,1.3,3.1s-0.5,2.3-1.3,3.1l-7.9,7.9
			c-3.6,3.6-5.3,1.9-6.1,1.2c-1-1-2.5-1-3.5,0s-1,2.5,0,3.5c1.7,1.7,3.6,2.5,5.6,2.5c2.4,0,5-1.2,7.5-3.7l7.9-7.9
			c1.8-1.8,2.8-4.1,2.8-6.6C52,19.2,51,16.8,49.2,15z"/>
	</g>
	<g>
		<g>
			<path class="st2" d="M21.8,47.7l-3,3c-2.7,2.6-6.9,2.6-9.6,0c-1.2-1.2-1.9-2.9-1.9-4.7s0.7-3.5,1.9-4.7l11.2-11.1
				c2.2-2.3,6.6-5.7,9.9-2.6c1.5,1.5,3.7,1.5,5.2,0c1.5-1.5,1.5-3.8,0-5.3C30.2,17,22.3,18,15.4,25L4.2,36.1C1.5,38.6,0,42.3,0,46
				c0,3.8,1.5,7.4,4.2,9.9c2.7,2.7,6.4,4.1,10,4.1s7.2-1.4,10-4.1l3-3c1.5-1.5,1.5-3.8,0-5.3C25.7,46.3,23.3,46.3,21.8,47.7z
				 M55.7,4.5c-5.8-5.7-13.9-6-19.2-0.8l-3.7,3.8c-1.5,1.5-1.5,3.8,0,5.3c1.5,1.5,3.7,1.5,5.2,0L41.7,9c2.8-2.7,6.4-1.7,8.8,0.8
				c1.2,1.2,1.9,2.9,1.9,4.7s-0.7,3.5-1.9,4.7L38.8,31c-5.4,5.4-7.9,2.9-9.1,1.8c-1.5-1.5-3.7-1.5-5.2,0c-1.5,1.5-1.5,3.8,0,5.3
				c2.5,2.6,5.4,3.8,8.4,3.8c3.6,0,7.5-1.8,11.2-5.6l11.8-11.9c2.7-2.7,4.2-6.2,4.2-9.9C59.9,10.8,58.4,7.2,55.7,4.5z"/>
		</g>
	</g>
</g>
</svg>
