<?xml version="1.0" encoding="utf-8"?>
<!-- Generator: Adobe Illustrator 22.0.1, SVG Export Plug-In . SVG Version: 6.00 Build 0)  -->
<svg version="1.1" id="图层_1" xmlns="http://www.w3.org/2000/svg" xmlns:xlink="http://www.w3.org/1999/xlink" x="0px" y="0px"
	 viewBox="0 0 500 500" style="enable-background:new 0 0 500 500;" xml:space="preserve">
<style type="text/css">
	.st0{display:none;}
	.st1{display:inline;}
	.st2{fill:#212528;}
	.st3{fill:#51575B;}
	.st4{fill:#3E4347;}
	.st5{fill:#788287;}
	.st6{opacity:0.5;enable-background:new    ;}
	.st7{fill:#F5F5F5;}
	.st8{fill:#636C72;}
	.st9{fill:#FFFFFF;stroke:#333333;stroke-width:28;stroke-miterlimit:10;}
	.st10{fill:#1A1A1A;}
	.st11{fill:#333333;}
	.st12{fill:#0071BC;stroke:#0071BC;stroke-width:21;stroke-miterlimit:10;}
	.st13{opacity:0.81;fill:#29ABE2;stroke:#F2F2F2;stroke-width:21;stroke-miterlimit:10;}
	.st14{fill:#CCCCCC;}
	.st15{opacity:0.33;fill:#F2F2F2;}
	.st16{fill:#F2F2F2;}
</style>
<g>
	<g class="st0">
		<g class="st1">
			<path class="st2" d="M168.7,136.2c0,9.1-7.6,16.5-17,16.5H76.2c-9.4,0-17-7.4-17-16.5v-20.6c0-9.1,7.6-16.5,17-16.5h75.5
				c9.4,0,17,7.4,17,16.5L168.7,136.2L168.7,136.2z"/>
			<path class="st2" d="M474.3,134.9c0,4.9-4.1,8.8-9.1,8.8h-40.3c-5,0-9.1-3.9-9.1-8.8v-11c0-4.9,4.1-8.8,9.1-8.8h40.3
				c5,0,9.1,3.9,9.1,8.8L474.3,134.9L474.3,134.9z"/>
			<path class="st2" d="M500.3,396.2c0,22.8-19,41.3-42.5,41.3H42.5C19,437.4,0,419,0,396.2v-12.4h500.3V396.2z"/>
			<path class="st3" d="M0,167.2c0-22.8,19-41.3,42.5-41.3h415.3c23.5,0,42.5,18.5,42.5,41.3v12.4H0V167.2z"/>
			<rect y="177.5" class="st4" width="500.3" height="214.5"/>
			<path class="st3" d="M427.3,150.9H176.5l25.2-82.2c2.1-4.6,12.6-12,18.8-13.7c38.2-10.2,124.7-10.2,162.9,0
				c6.2,1.7,16.7,9.1,18.8,13.7L427.3,150.9z"/>
			<path class="st4" d="M415.1,239H188.7l22.7-111c1.9-6.2,11.3-16.2,17-18.5c34.5-13.8,112.5-13.8,147.1,0c5.6,2.3,15,12.3,17,18.5
				L415.1,239z"/>
			<path class="st5" d="M473.9,299.9c0,92.2-77,166.9-172,166.9c-95,0-172-74.7-172-166.9c0-92.1,77-166.9,172-166.9
				C396.9,133.1,473.9,207.8,473.9,299.9z"/>
			<path class="st2" d="M454.8,299.9c0,82-68.5,148.3-152.9,148.3c-84.4,0-152.9-66.4-152.9-148.3c0-81.9,68.5-148.3,152.9-148.3
				C386.3,151.6,454.8,218,454.8,299.9z"/>
			<ellipse class="st4" cx="301.9" cy="299.9" rx="124.2" ry="120.5"/>
			<ellipse class="st2" cx="301.9" cy="299.9" rx="66.9" ry="64.9"/>
			<g class="st6">
				<path class="st7" d="M393.3,248.5c0,20.6-17.2,37.3-38.5,37.3c-21.3,0-38.5-16.7-38.5-37.3c0-20.6,17.2-37.3,38.5-37.3
					C376,211.2,393.3,227.9,393.3,248.5z"/>
			</g>
			<g class="st6">
				<ellipse class="st7" cx="278" cy="323.1" rx="23.9" ry="23.2"/>
			</g>
			<g class="st6">
				<ellipse class="st7" cx="235" cy="364.8" rx="14.8" ry="14.4"/>
			</g>
			<path class="st8" d="M117.3,358.3c0,9.1-7.6,16.5-17,16.5H28c-9.4,0-17-7.4-17-16.5V211.2c0-9.1,7.6-16.5,17-16.5h72.3
				c9.4,0,17,7.4,17,16.5L117.3,358.3L117.3,358.3z"/>
			<ellipse class="st2" cx="79" cy="155.5" rx="24.8" ry="24.1"/>
		</g>
	</g>
</g>
<path class="st9" d="M416.5,151.5H247.7c-8.1,0-13.9-7.8-11.6-15.6l16.3-54.3c1.5-5.1,6.2-8.6,11.6-8.6h136.9
	c5.4,0,10.1,3.6,11.6,8.8l15.6,54.3C430.3,143.8,424.5,151.5,416.5,151.5z"/>
<path class="st10" d="M157,148H70c-6.6,0-12-5.4-12-12v-25c0-6.6,5.4-12,12-12h87c6.6,0,12,5.4,12,12v25
	C169,142.6,163.6,148,157,148z"/>
<path class="st11" d="M455,438H45c-24.8,0-45-20.3-45-45V170c0-24.8,20.3-45,45-45h410c24.8,0,45,20.3,45,45v223
	C500,417.8,479.8,438,455,438z"/>
<ellipse class="st12" cx="335.3" cy="288.7" rx="88.7" ry="88.4"/>
<ellipse class="st13" cx="335.3" cy="289.5" rx="97.8" ry="97.5"/>
<path class="st14" d="M176,188H48c-6.6,0-12-5.4-12-12v-16c0-6.6,5.4-12,12-12h128c6.6,0,12,5.4,12,12v16
	C188,182.6,182.6,188,176,188z"/>
<circle class="st15" cx="50.5" cy="403.5" r="14.5"/>
<rect x="36" y="160" class="st16" width="152" height="16"/>
</svg>
